<svg width="191" height="30" viewBox="0 0 191 30" fill="none" xmlns="http://www.w3.org/2000/svg">
<path d="M15.0502 0L18.4205 10.3647H29.327L20.5034 16.7705L23.8737 27.1353L15.0502 20.7295L6.22657 27.1353L9.59688 16.7705L0.773293 10.3647H11.6798L15.0502 0Z" fill="#F0C70D"/>
<path d="M55.0809 0L58.4512 10.3647H69.3578L60.5342 16.7705L63.9045 27.1353L55.0809 20.7295L46.2573 27.1353L49.6276 16.7705L40.8041 10.3647H51.7106L55.0809 0Z" fill="#F0C70D"/>
<path d="M95.1122 0L98.4825 10.3647H109.389L100.565 16.7705L103.936 27.1353L95.1122 20.7295L86.2886 27.1353L89.6589 16.7705L80.8353 10.3647H91.7419L95.1122 0Z" fill="#F0C70D"/>
<path d="M135.143 0L138.513 10.3647H149.42L140.596 16.7705L143.967 27.1353L135.143 20.7295L126.319 27.1353L129.69 16.7705L120.866 10.3647H131.773L135.143 0Z" fill="#F0C70D"/>
<path d="M175.174 0L178.544 10.3647H189.451L180.627 16.7705L183.997 27.1353L175.174 20.7295L166.35 27.1353L169.72 16.7705L160.897 10.3647H171.803L175.174 0Z" fill="#D9D9D9"/>
</svg>
