<svg width="191" height="30" viewBox="0 0 191 30" fill="none" xmlns="http://www.w3.org/2000/svg">
<path d="M15.3885 0L18.7588 10.3647H29.6654L20.8418 16.7705L24.2121 27.1353L15.3885 20.7295L6.56495 27.1353L9.93526 16.7705L1.11167 10.3647H12.0182L15.3885 0Z" fill="#F0C70D"/>
<path d="M55.4193 0L58.7896 10.3647H69.6962L60.8726 16.7705L64.2429 27.1353L55.4193 20.7295L46.5957 27.1353L49.966 16.7705L41.1424 10.3647H52.049L55.4193 0Z" fill="#F0C70D"/>
<path d="M95.4505 0L98.8209 10.3647H109.727L100.904 16.7705L104.274 27.1353L95.4505 20.7295L86.627 27.1353L89.9973 16.7705L81.1737 10.3647H92.0802L95.4505 0Z" fill="#F0C70D"/>
<path d="M135.481 0L138.852 10.3647H149.758L140.935 16.7705L144.305 27.1353L135.481 20.7295L126.658 27.1353L130.028 16.7705L121.204 10.3647H132.111L135.481 0Z" fill="#F0C70D"/>
<path d="M175.512 0L178.882 10.3647H189.789L180.965 16.7705L184.336 27.1353L175.512 20.7295L166.688 27.1353L170.059 16.7705L161.235 10.3647H172.142L175.512 0Z" fill="#F0C70D"/>
</svg>
