<svg width="191" height="30" viewBox="0 0 191 30" fill="none" xmlns="http://www.w3.org/2000/svg">
<path d="M15.7274 0L19.0977 10.3647H30.0043L21.1807 16.7705L24.551 27.1353L15.7274 20.7295L6.90382 27.1353L10.2741 16.7705L1.45054 10.3647H12.3571L15.7274 0Z" fill="#F0C70D"/>
<path d="M55.7587 0L59.129 10.3647H70.0355L61.2119 16.7705L64.5822 27.1353L55.7587 20.7295L46.9351 27.1353L50.3054 16.7705L41.4818 10.3647H52.3883L55.7587 0Z" fill="#F0C70D"/>
<path d="M95.7889 0L99.1592 10.3647H110.066L101.242 16.7705L104.613 27.1353L95.7889 20.7295L86.9653 27.1353L90.3356 16.7705L81.5121 10.3647H92.4186L95.7889 0Z" fill="#D9D9D9"/>
<path d="M135.82 0L139.19 10.3647H150.097L141.273 16.7705L144.644 27.1353L135.82 20.7295L126.997 27.1353L130.367 16.7705L121.543 10.3647H132.45L135.82 0Z" fill="#D9D9D9"/>
<path d="M175.851 0L179.222 10.3647H190.128L181.305 16.7705L184.675 27.1353L175.851 20.7295L167.028 27.1353L170.398 16.7705L161.575 10.3647H172.481L175.851 0Z" fill="#D9D9D9"/>
</svg>
