<svg width="138" height="44" viewBox="0 0 138 44" fill="none" xmlns="http://www.w3.org/2000/svg">
<g clip-path="url(#clip0_191_437)">
<path fill-rule="evenodd" clip-rule="evenodd" d="M0.000976562 43.6055H14.0518C19.9887 43.6055 25.0571 41.5276 29.257 37.3717C33.4568 33.2158 35.5568 28.2004 35.5568 22.3256V21.2812C35.5568 15.4064 33.4568 10.391 29.257 6.23515C25.0571 2.07926 19.9887 0.00131226 14.0518 0.00131226H0.000976562V43.6055ZM3.29929 40.5376C3.28708 40.029 3.38028 39.5234 3.57315 39.0519C3.76602 38.5804 4.05448 38.1529 4.42071 37.796L6.2018 36.0335C7.08937 35.1217 7.58581 33.9052 7.58709 32.6392V7.50803H13.59C17.548 7.50803 20.9343 8.90057 23.7488 11.6857C26.5634 14.4708 27.9707 17.8216 27.9707 21.7381V21.8687C27.9707 25.8288 26.5634 29.1905 23.7488 31.9538C20.9343 34.7171 17.548 36.0988 13.59 36.0988H8.84045L3.29929 41.1903V40.5376ZM90.3087 31.0073C89.7002 32.7052 89.3879 34.4931 89.3852 36.2946V40.407H87.868V36.5557C87.8796 34.7585 87.5898 32.9718 87.0104 31.2684L80.3478 11.6204H72.3659L83.0524 43.2139H94.1348L104.821 11.6204H96.8394L90.3087 31.0073Z" fill="#B23AC8"/>
<path fill-rule="evenodd" clip-rule="evenodd" d="M65.8017 15.2106C62.8767 12.3819 59.3475 10.9676 55.2142 10.9676H53.9608C49.7829 10.9676 46.2098 12.4363 43.2413 15.3738C40.2728 18.3112 38.7886 21.8469 38.7886 25.9811V28.9837C38.7886 33.1179 40.2728 36.6537 43.2413 39.5911C46.2098 42.5285 49.7829 43.9972 53.9608 43.9972H55.2142C58.038 44.0193 60.8087 43.2376 63.1961 41.7452C65.5642 40.2977 67.4819 38.2307 68.7372 35.7724L60.8873 33.8142C59.392 35.5984 57.457 36.4905 55.0822 36.4905H54.1587C52.3002 36.519 50.4989 35.8549 49.1123 34.6301C47.7177 33.4521 46.7937 31.8202 46.5066 30.0282H70.3864V25.5241C70.3518 23.59 69.9286 21.6821 69.1415 19.9115C68.3543 18.1408 67.2191 16.5428 65.8017 15.2106ZM48.9144 20.5305C50.3193 19.1864 52.2047 18.4471 54.1587 18.4744H55.0822C57.015 18.4561 58.8766 19.1953 60.2606 20.5305C61.6973 21.8306 62.6012 23.6077 62.8003 25.5241H46.4407C46.5945 23.6091 47.4789 21.8238 48.9144 20.5305ZM107.92 0.00131226V7.50803H127.116C128.81 7.51511 130.458 6.96391 131.8 5.9414L134.241 4.0484V5.61503L106.337 36.0988V43.6055H138.001V36.0988H116.628C115.21 36.1021 113.837 36.5859 112.736 37.4696L109.569 40.0806V37.8613L138.001 7.18165V0.00131226H107.92Z" fill="#499FFC"/>
<path fill-rule="evenodd" clip-rule="evenodd" d="M65.8017 15.2106C62.8767 12.382 59.3475 10.9677 55.2142 10.9677H53.9608C49.7829 10.9677 46.2098 12.4364 43.2413 15.3738C40.2728 18.3112 38.7886 21.8469 38.7886 25.9811V28.9838C38.7886 33.1179 40.2728 36.6537 43.2413 39.5911C46.2098 42.5285 49.7829 43.9972 53.9608 43.9972H55.2142C58.038 44.0193 60.8087 43.2376 63.1961 41.7452C65.5642 40.2977 67.4819 38.2307 68.7372 35.7724L60.8873 33.8142C59.392 35.5984 57.457 36.4905 55.0822 36.4905H54.1587C52.3002 36.519 50.4989 35.8549 49.1123 34.6301C47.7177 33.4521 46.7937 31.8202 46.5066 30.0282H70.3864V25.5241C70.3518 23.5901 69.9286 21.6821 69.1415 19.9115C68.3544 18.1408 67.2191 16.5428 65.8017 15.2106ZM48.9144 20.5305C50.3193 19.1864 52.2047 18.4471 54.1587 18.4744H55.0822C57.015 18.4561 58.8766 19.1953 60.2606 20.5305C61.6973 21.8306 62.6012 23.6077 62.8003 25.5241H46.4407C46.5945 23.6092 47.4789 21.8238 48.9144 20.5305Z" fill="#B23AC8"/>
</g>
<defs>
<clipPath id="clip0_191_437">
<rect width="138" height="44" fill="white"/>
</clipPath>
</defs>
</svg>
